<svg xmlns="http://www.w3.org/2000/svg" width="18" height="18" viewBox="0 0 18 18">
  <path d="M13.0 2.0L3.55555555556 2.0C2.69222222222 2.0 2.0 2.7 2.0 3.55555555556L2.0 14.4444444444C2.0 15.3 2.69222222222 16.0 3.55555555556 16.0L14.4444444444 16.0C15.3 16.0 16.0 15.3 16.0 14.4444444444L16.0 5.11111111111L12.8888888889 2.0ZM9.0 14.4444444444C7.70888888889 14.4444444444 6.66666666667 13.4022222222 6.66666666667 12.1111111111C6.66666666667 10.82 7.70888888889 9.7777777778 9.0 9.7777777778C10.2911111111 9.7777777778 11.3333333333 10.82 11.3333333333 12.1111111111C11.3333333333 13.4022222222 10.2911111111 14.4444444444 9.0 14.4444444444ZM11.3333333333 7.0L4.0 7.0L4.0 4.0L11.0 4.0L11.0 6.66666666667Z" />
</svg>