<svg xmlns="http://www.w3.org/2000/svg" width="18" height="18" viewBox="0 0 18 18">
  <path d="M13.0 9.0C12.9444444444 7.62333333333 12.1511111111 6.44111111111 11.0 5.86555555556L11.0 7.58444444444L12.4611111111 9.49C12.4844444444 9.33444444444 12.5 9.17111111111 12.5 9.0ZM14.4444444444 9.0C14.4444444444 9.73111111111 14.2888888889 10.4155555556 14.0244444444 11.0533333333L15.1988888889 12.2277777778C15.7122222222 11.2633333333 16.0 10.1666666667 16.0 9.0C16.4444444444 5.67111111111 14.1188888888 2.88666666667 11.0 2.17888888889L11.0 3.78111111111C12.8033333333 4.45 14.4444444444 6.53444444444 14.4444444444 9.0ZM2.98777777778 2.0L2.0 2.98777777778L5.67888888889 7.0L2.0 7.0L2.0 11.0L5.11111111111 11.0L9.0 15.2222222222L9.0 9.9877777778L12.3055555556 13.2933333333C12.2288888888 13.6977777778 11.6455555555 14.0166666667 11.0 14.2111111111L11.0 15.8133333333C11.6288888889 15.5722222222 12.6011111111 15.0744444444 13.4255555556 14.4055555556L15.0122222222 16.0L16.0 15.0122222222L9.0 8.01222222222L2.98777777778 2.0ZM9.0 2.77777777778L7.37444444444 4.40333333333L9.0 6.02888888889L9.0 2.77777777778Z" />
</svg>