<svg version="1.1" id="Layer_1" xmlns="http://www.w3.org/2000/svg" xmlns:xlink="http://www.w3.org/1999/xlink" x="0px" y="0px"
	 height="40px"  width="40px" viewBox="0 0 40 40" enable-background="new 0 0 40 40" xml:space="preserve">
    <defs style="-webkit-tap-highlight-color: rgba(0, 0, 0, 0);"></defs>
    <path style="-webkit-tap-highlight-color: rgba(0, 0, 0, 0); stroke-linejoin: round; opacity: 0;" fill="none" stroke="#ffffff" d="M17.41,20.395L16.632,17.672C16.860000000000003,17.472,17.074,17.258,17.276,17.029L19.997,17.807C20.284,17.389,20.531,16.945,20.752,16.483999999999998L18.727,14.523999999999997C18.824,14.235999999999997,18.908,13.942999999999998,18.968,13.640999999999998L21.697,12.956999999999999C21.717,12.704999999999998,21.736,12.451999999999998,21.736,12.193999999999999S21.716,11.684,21.697,11.431999999999999L18.968,10.748C18.907,10.446,18.823,10.152999999999999,18.727,9.864999999999998L20.753,7.9049999999999985C20.531,7.4449999999999985,20.284,6.999999999999998,19.997,6.581999999999999L17.276,7.358999999999999C17.075,7.130999999999999,16.86,6.916999999999999,16.632,6.715999999999999L17.41,3.9939999999999993C16.992,3.7079999999999993,16.547,3.459999999999999,16.086,3.2389999999999994L14.125999999999998,5.264999999999999C13.838999999999997,5.167999999999998,13.544999999999998,5.084999999999999,13.242999999999999,5.023999999999999L12.559999999999999,2.293999999999999C12.306999999999999,2.274999999999999,12.054999999999998,2.254999999999999,11.796999999999999,2.254999999999999S11.286999999999999,2.274999999999999,11.034999999999998,2.293999999999999L10.350999999999999,5.023999999999999C10.049,5.084999999999999,9.755999999999998,5.167999999999999,9.468,5.264999999999999L7.508,3.238999999999999C7.048,3.463,6.604,3.71,6.186,3.997L6.964,6.718999999999999C6.736,6.919,6.521,7.134,6.321,7.361L3.599,6.583C3.312,7.001,3.065,7.446,2.844,7.907L4.869999999999999,9.867C4.773999999999999,10.155000000000001,4.6899999999999995,10.448,4.629,10.75L1.8989999999999996,11.434C1.8799999999999997,11.686,1.8599999999999997,11.939,1.8599999999999997,12.196S1.8799999999999997,12.706,1.8989999999999996,12.959L4.629,13.642999999999999C4.6899999999999995,13.944999999999999,4.773999999999999,14.238,4.869999999999999,14.526L2.8439999999999994,16.486C3.0649999999999995,16.946,3.3119999999999994,17.391000000000002,3.5989999999999993,17.809L6.321,17.031000000000002C6.521,17.26,6.736,17.473000000000003,6.9639999999999995,17.674000000000003L6.186,20.397000000000002C6.604,20.683000000000003,7.0489999999999995,20.930000000000003,7.509,21.152L9.469000000000001,19.126C9.757000000000001,19.223000000000003,10.05,19.307000000000002,10.352,19.367L11.036,22.096C11.288,22.116,11.541,22.135,11.799,22.135S12.309,22.115000000000002,12.562,22.096L13.245,19.367C13.546999999999999,19.306,13.841,19.222,14.128,19.126L16.088,21.152C16.547,20.928,16.992,20.681,17.41,20.395ZM11.798,15.594C9.921,15.594,8.399000000000001,14.072,8.399000000000001,12.195S9.921000000000001,8.797,11.798000000000002,8.797S15.196000000000002,10.318000000000001,15.196000000000002,12.195S13.675,15.594,11.798,15.594ZM27.29,22.699C27.308999999999997,22.152,27.23,21.595000000000002,27.06,21.045L28.304,19.272000000000002C28.116,18.922,27.904,18.590000000000003,27.662999999999997,18.288000000000004L25.540999999999997,18.733000000000004C25.112999999999996,18.369000000000003,24.625999999999998,18.085000000000004,24.104999999999997,17.882000000000005L23.493999999999996,15.803000000000004C23.107999999999997,15.735000000000005,22.716999999999995,15.698000000000004,22.320999999999998,15.697000000000005L21.346999999999998,17.633000000000003C21.067999999999998,17.687,20.788999999999998,17.761000000000003,20.514999999999997,17.866000000000003C20.257999999999996,17.964000000000002,20.017999999999997,18.086000000000002,19.787999999999997,18.219000000000005L17.782,17.4C17.485,17.662,17.214,17.945,16.969,18.252L17.876,20.22C17.617,20.715,17.439,21.247999999999998,17.357000000000003,21.805L15.466000000000003,22.865C15.485000000000003,23.253,15.542000000000003,23.641,15.630000000000003,24.029999999999998L17.734,24.548999999999996C17.965000000000003,25.072999999999997,18.275000000000002,25.541999999999994,18.650000000000002,25.941999999999997L18.298000000000002,28.08C18.618000000000002,28.31,18.958000000000002,28.508,19.311,28.68L21.026,27.36C21.562,27.500999999999998,22.123,27.555,22.688,27.509999999999998L24.14,29.116999999999997C24.34,29.06,24.539,28.999,24.736,28.923999999999996C24.911,28.857999999999997,25.076,28.779999999999998,25.241,28.700999999999997L25.278,26.535999999999998C25.732999999999997,26.197,26.121,25.788999999999998,26.43,25.33L28.591,25.195999999999998C28.743000000000002,24.836999999999996,28.87,24.464,28.959,24.081L27.29,22.699ZM23.127,24.706C21.926,25.163999999999998,20.582,24.562,20.122999999999998,23.361S20.266,20.815,21.467,20.356C22.668,19.898000000000003,24.014,20.5,24.473,21.701C24.931,22.902,24.328,24.247,23.127,24.706Z" stroke-width="3" stroke-linejoin="round" opacity="0" transform="matrix(1,0,0,1,4,4)"></path>
    <path style="-webkit-tap-highlight-color: rgba(0, 0, 0, 0);" fill="#fff" stroke="none" d="M17.41,20.395L16.632,17.672C16.860000000000003,17.472,17.074,17.258,17.276,17.029L19.997,17.807C20.284,17.389,20.531,16.945,20.752,16.483999999999998L18.727,14.523999999999997C18.824,14.235999999999997,18.908,13.942999999999998,18.968,13.640999999999998L21.697,12.956999999999999C21.717,12.704999999999998,21.736,12.451999999999998,21.736,12.193999999999999S21.716,11.684,21.697,11.431999999999999L18.968,10.748C18.907,10.446,18.823,10.152999999999999,18.727,9.864999999999998L20.753,7.9049999999999985C20.531,7.4449999999999985,20.284,6.999999999999998,19.997,6.581999999999999L17.276,7.358999999999999C17.075,7.130999999999999,16.86,6.916999999999999,16.632,6.715999999999999L17.41,3.9939999999999993C16.992,3.7079999999999993,16.547,3.459999999999999,16.086,3.2389999999999994L14.125999999999998,5.264999999999999C13.838999999999997,5.167999999999998,13.544999999999998,5.084999999999999,13.242999999999999,5.023999999999999L12.559999999999999,2.293999999999999C12.306999999999999,2.274999999999999,12.054999999999998,2.254999999999999,11.796999999999999,2.254999999999999S11.286999999999999,2.274999999999999,11.034999999999998,2.293999999999999L10.350999999999999,5.023999999999999C10.049,5.084999999999999,9.755999999999998,5.167999999999999,9.468,5.264999999999999L7.508,3.238999999999999C7.048,3.463,6.604,3.71,6.186,3.997L6.964,6.718999999999999C6.736,6.919,6.521,7.134,6.321,7.361L3.599,6.583C3.312,7.001,3.065,7.446,2.844,7.907L4.869999999999999,9.867C4.773999999999999,10.155000000000001,4.6899999999999995,10.448,4.629,10.75L1.8989999999999996,11.434C1.8799999999999997,11.686,1.8599999999999997,11.939,1.8599999999999997,12.196S1.8799999999999997,12.706,1.8989999999999996,12.959L4.629,13.642999999999999C4.6899999999999995,13.944999999999999,4.773999999999999,14.238,4.869999999999999,14.526L2.8439999999999994,16.486C3.0649999999999995,16.946,3.3119999999999994,17.391000000000002,3.5989999999999993,17.809L6.321,17.031000000000002C6.521,17.26,6.736,17.473000000000003,6.9639999999999995,17.674000000000003L6.186,20.397000000000002C6.604,20.683000000000003,7.0489999999999995,20.930000000000003,7.509,21.152L9.469000000000001,19.126C9.757000000000001,19.223000000000003,10.05,19.307000000000002,10.352,19.367L11.036,22.096C11.288,22.116,11.541,22.135,11.799,22.135S12.309,22.115000000000002,12.562,22.096L13.245,19.367C13.546999999999999,19.306,13.841,19.222,14.128,19.126L16.088,21.152C16.547,20.928,16.992,20.681,17.41,20.395ZM11.798,15.594C9.921,15.594,8.399000000000001,14.072,8.399000000000001,12.195S9.921000000000001,8.797,11.798000000000002,8.797S15.196000000000002,10.318000000000001,15.196000000000002,12.195S13.675,15.594,11.798,15.594ZM27.29,22.699C27.308999999999997,22.152,27.23,21.595000000000002,27.06,21.045L28.304,19.272000000000002C28.116,18.922,27.904,18.590000000000003,27.662999999999997,18.288000000000004L25.540999999999997,18.733000000000004C25.112999999999996,18.369000000000003,24.625999999999998,18.085000000000004,24.104999999999997,17.882000000000005L23.493999999999996,15.803000000000004C23.107999999999997,15.735000000000005,22.716999999999995,15.698000000000004,22.320999999999998,15.697000000000005L21.346999999999998,17.633000000000003C21.067999999999998,17.687,20.788999999999998,17.761000000000003,20.514999999999997,17.866000000000003C20.257999999999996,17.964000000000002,20.017999999999997,18.086000000000002,19.787999999999997,18.219000000000005L17.782,17.4C17.485,17.662,17.214,17.945,16.969,18.252L17.876,20.22C17.617,20.715,17.439,21.247999999999998,17.357000000000003,21.805L15.466000000000003,22.865C15.485000000000003,23.253,15.542000000000003,23.641,15.630000000000003,24.029999999999998L17.734,24.548999999999996C17.965000000000003,25.072999999999997,18.275000000000002,25.541999999999994,18.650000000000002,25.941999999999997L18.298000000000002,28.08C18.618000000000002,28.31,18.958000000000002,28.508,19.311,28.68L21.026,27.36C21.562,27.500999999999998,22.123,27.555,22.688,27.509999999999998L24.14,29.116999999999997C24.34,29.06,24.539,28.999,24.736,28.923999999999996C24.911,28.857999999999997,25.076,28.779999999999998,25.241,28.700999999999997L25.278,26.535999999999998C25.732999999999997,26.197,26.121,25.788999999999998,26.43,25.33L28.591,25.195999999999998C28.743000000000002,24.836999999999996,28.87,24.464,28.959,24.081L27.29,22.699ZM23.127,24.706C21.926,25.163999999999998,20.582,24.562,20.122999999999998,23.361S20.266,20.815,21.467,20.356C22.668,19.898000000000003,24.014,20.5,24.473,21.701C24.931,22.902,24.328,24.247,23.127,24.706Z" transform="matrix(1,0,0,1,4,4)"></path>
    <rect style="-webkit-tap-highlight-color: rgba(0, 0, 0, 0); opacity: 0;" x="0" y="0" width="32" height="32" r="0" rx="0" ry="0" fill="#000000" stroke="#000" opacity="0" />                                                                                                                                                                                                                                                                                                                                                                                                                                                                                                                                                                                                                                                                                                                                                                                                                                                                                                                                                                                                                                                                                                                                                                                                                                                                                                                                                                                                                                                                                                                                                                                                                                                                                                                                                                                                                                                                                                                                                                                                                                                                                                                                                                                                                                                                                                                                                                                                                                                                                                                                                                                                                                                                                                                                                                                                                                                                                                                                                                                                                                                                                                                                                                                                                                                                                                                                                                                                                                                                                                                                                                                                                                                                                                                                                                                                                                                                                                                                                                                                                                                                                                                                                                                                                                                                                                                                                                                                                                                                                                                                                                                                                                                                                                                                                                                                                                                                                                                                                                                                                                                                                                                                                                                                                                                                                                                                                                                                                                                                                                                                                                                                                                                                                                                                                                                                                                                                                                                                                                                                                                                                                                                                                                                                                                                                                                                                                                                                                                                                                                                                                                                                                                                                                                                                                                                                                                                                                                                                                                                                                                                                                                                                                                                                                                                                                                                                                                                                                                                                                                                                                                                                                                                                                                                                                                                                                                                                                                                                                                                                                                                                                                                                                                                                                                                                                                                                                                                                                                                                                                                                                                                                                                                                                                                                                                                                                                                                                                                                                                                                                                                                                                                                                                                                                                                                                                                                                                                                                                                                                                                                                                                                                                                                                                                                                                                                                                                                                                                                        
</svg>